HIERARCHY
ROOT Hips
{
	OFFSET 0.00000 0.00000 0.00000
	CHANNELS 6 Xposition Yposition Zposition Zrotation Yrotation Xrotation 
	JOINT LHipJoint
	{
		OFFSET 0 0 0
		CHANNELS 3 Zrotation Yrotation Xrotation
		JOINT LeftUpLeg
		{
			OFFSET 1.64549 -1.70879 0.84566
			CHANNELS 3 Zrotation Yrotation Xrotation
			JOINT LeftLeg
			{
				OFFSET 2.24963 -6.18082 0.00000
				CHANNELS 3 Zrotation Yrotation Xrotation
				JOINT LeftFoot
				{
					OFFSET 2.71775 -7.46697 0.00000
					CHANNELS 3 Zrotation Yrotation Xrotation
					JOINT LeftToeBase
					{
						OFFSET 0.18768 -0.51564 2.24737
						CHANNELS 3 Zrotation Yrotation Xrotation
						End Site
						{
							OFFSET 0.00000 -0.00000 1.15935
						}
					}
				}
			}
		}
	}
	JOINT RHipJoint
	{
		OFFSET 0 0 0
		CHANNELS 3 Zrotation Yrotation Xrotation
		JOINT RightUpLeg
		{
			OFFSET -1.58830 -1.70879 0.84566
			CHANNELS 3 Zrotation Yrotation Xrotation
			JOINT RightLeg
			{
				OFFSET -2.25006 -6.18201 0.00000
				CHANNELS 3 Zrotation Yrotation Xrotation
				JOINT RightFoot
				{
					OFFSET -2.72829 -7.49593 0.00000
					CHANNELS 3 Zrotation Yrotation Xrotation
					JOINT RightToeBase
					{
						OFFSET -0.21541 -0.59185 2.10643
						CHANNELS 3 Zrotation Yrotation Xrotation
						End Site
						{
							OFFSET -0.00000 -0.00000 1.09838
						}
					}
				}
			}
		}
	}
	JOINT LowerBack
	{
		OFFSET 0 0 0
		CHANNELS 3 Zrotation Yrotation Xrotation
		JOINT Spine
		{
			OFFSET 0.03142 2.10496 -0.11038
			CHANNELS 3 Zrotation Yrotation Xrotation
			JOINT Spine1
			{
				OFFSET -0.01863 2.10897 -0.06956
				CHANNELS 3 Zrotation Yrotation Xrotation
				JOINT Neck
				{
					OFFSET 0 0 0
					CHANNELS 3 Zrotation Yrotation Xrotation
					JOINT Neck1
					{
						OFFSET -0.02267 1.73238 0.00451
						CHANNELS 3 Zrotation Yrotation Xrotation
						JOINT Head
						{
							OFFSET -0.05808 1.54724 -0.61749
							CHANNELS 3 Zrotation Yrotation Xrotation
							End Site
							{
								OFFSET -0.01396 1.71468 -0.21082
							}
						}
					}
				}
				JOINT LeftShoulder
				{
					OFFSET 0 0 0
					CHANNELS 3 Zrotation Yrotation Xrotation
					JOINT LeftArm
					{
						OFFSET 3.44898 0.50298 0.21920
						CHANNELS 3 Zrotation Yrotation Xrotation
						JOINT LeftForeArm
						{
							OFFSET 5.41917 -0.00000 -0.00000
							CHANNELS 3 Zrotation Yrotation Xrotation
							JOINT LeftHand
							{
								OFFSET 2.44373 -0.00000 0.00000
								CHANNELS 3 Zrotation Yrotation Xrotation
								JOINT LeftFingerBase
								{
									OFFSET 0 0 0
									CHANNELS 3 Zrotation Yrotation Xrotation
									JOINT LeftHandIndex1
									{
										OFFSET 0.72750 -0.00000 0.00000
										CHANNELS 3 Zrotation Yrotation Xrotation
										End Site
										{
											OFFSET 0.58653 -0.00000 0.00000
										}
									}
								}
								JOINT LThumb
								{
									OFFSET 0 0 0
									CHANNELS 3 Zrotation Yrotation Xrotation
									End Site
									{
										OFFSET 0.59549 -0.00000 0.59549
									}
								}
							}
						}
					}
				}
				JOINT RightShoulder
				{
					OFFSET 0 0 0
					CHANNELS 3 Zrotation Yrotation Xrotation
					JOINT RightArm
					{
						OFFSET -3.23015 0.55830 0.31051
						CHANNELS 3 Zrotation Yrotation Xrotation
						JOINT RightForeArm
						{
							OFFSET -5.58976 -0.00010 0.00014
							CHANNELS 3 Zrotation Yrotation Xrotation
							JOINT RightHand
							{
								OFFSET -2.48060 -0.00000 0.00000
								CHANNELS 3 Zrotation Yrotation Xrotation
								JOINT RightFingerBase
								{
									OFFSET 0 0 0
									CHANNELS 3 Zrotation Yrotation Xrotation
									JOINT RightHandIndex1
									{
										OFFSET -0.81601 -0.00000 0.00000
										CHANNELS 3 Zrotation Yrotation Xrotation
										End Site
										{
											OFFSET -0.65789 -0.00000 0.00000
										}
									}
								}
								JOINT RThumb
								{
									OFFSET 0 0 0
									CHANNELS 3 Zrotation Yrotation Xrotation
									End Site
									{
										OFFSET -0.66793 -0.00000 0.66793
									}
								}
							}
						}
					}
				}
			}
		}
	}
}
MOTION
Frames: 16
Frame Time: .0083333
2.7023 17.0386 26.1091 0 0 0 0 0 0 -21 0 0 0 0 0 0 0 0 0 0 0 0 0 0 21 0 0 0 0 0 0 0 0 0 0 0 0 0 0 0 0 0 0 0 0 0 0 -16 0 0 21 0 0 11 0 0 0 -8 0 0 0 0 0 0 0 0 0 0 0 0 0 0 0 0 0 0 0 0 8 0 0 0 0 0 0 0 0 0 0 0 0 0 0 0 0 0
2.7023 17.0386 26.1091 176.7630 -59.1987 -158.3760 0.0000 0.0000 0.0000 -7.1588 -10.1803 -14.7500 2.4713 9.7856 28.2851 9.4064 3.5007 -59.7993 4.1567 12.3661 37.0397 0.0000 0.0000 0.0000 19.2766 15.4960 -38.6772 -4.5626 -12.8737 38.8974 0.8520 -17.5818 -14.2142 -0.2091 2.9444 -8.1239 -5.5425 0.9302 -7.3374 -2.0943 0.6366 -9.6519 0.9440 0.3039 -6.0782 -8.6447 -8.4936 -17.5717 5.2158 -11.5964 25.5963 1.4726 -5.5911 12.1753 -0.0000 0.0000 0.0000 -13.0844 4.0075 -29.7685 9.1847 -15.4543 -1.2489 -0.0000 -0.0000 54.1245 -0.7438 29.2996 -0.3640 -7.1250 0.0000 -0.0000 -33.8224 55.8682 -9.8189 -0.0000 0.0000 0.0000 33.4458 19.1149 -110.5082 -6.1592 10.5274 -0.5680 0.0000 0.0000 104.9100 -6.7453 4.9704 -0.5871 7.1250 -0.0000 -0.0000 14.8161 -24.9525 7.4215
2.7188 17.2225 25.9767 175.9810 -58.7281 -157.7650 0.0000 0.0000 0.0000 -9.1744 -10.1247 -15.1807 2.4606 9.7659 28.2219 8.7671 4.3756 -57.9115 3.9991 12.1592 36.2976 0.0000 0.0000 0.0000 19.3434 15.2879 -37.3346 -4.1106 -12.3061 36.8236 0.9994 -17.8144 -10.9838 -0.4422 4.2668 -11.8284 -6.1495 0.6269 -7.8047 -1.8755 0.3314 -9.3374 1.5104 0.1874 -5.4750 -8.2236 -8.1122 -17.7830 4.8242 -11.0296 25.5997 1.3545 -5.3405 12.1170 -0.0000 -0.0000 0.0000 -13.3639 5.1075 -29.8644 9.1952 -15.4710 -1.2517 -0.0000 -0.0000 53.9123 -0.4625 29.2781 -0.2262 -7.1250 0.0000 -0.0000 -33.5404 55.9063 -9.7551 -0.0000 -0.0000 0.0000 32.2085 19.5987 -113.7124 -6.2389 10.6600 -0.5826 0.0000 0.0000 107.5260 -7.2201 6.2141 -0.7856 7.1250 -0.0000 -0.0000 14.3390 -23.7355 7.5857
2.7444 17.3899 25.8364 176.0820 -58.3406 -158.0380 0.0000 0.0000 0.0000 -10.6279 -9.6134 -15.8853 2.4995 9.8370 28.4504 7.9959 5.4166 -55.5956 3.8694 11.9846 35.6776 0.0000 0.0000 0.0000 19.9557 14.8909 -36.0601 -3.7060 -11.7586 34.8833 1.0258 -17.6074 -7.5700 -0.6547 5.1754 -14.4096 -6.3204 0.5848 -7.8728 -1.7791 0.3053 -9.2280 1.7065 0.1863 -5.3219 -7.7227 -7.9680 -17.7053 4.5279 -10.9320 25.8157 1.1827 -5.2955 12.1245 0.0000 -0.0000 0.0000 -13.2450 5.6561 -29.5465 9.1568 -15.4099 -1.2414 -0.0000 -0.0000 53.7664 -0.1932 29.2127 -0.0943 -7.1250 0.0000 -0.0000 -33.2337 55.9053 -9.6499 0.0000 -0.0000 0.0000 31.4264 19.2869 -116.2608 -6.3531 10.8499 -0.6040 0.0000 0.0000 109.3490 -7.1976 7.2939 -0.9186 7.1250 -0.0000 -0.0000 14.2516 -22.6814 7.8939
2.7701 17.5670 25.6857 176.2130 -58.1302 -158.5140 0.0000 0.0000 0.0000 -11.9881 -8.7112 -16.5601 2.5267 9.8862 28.6091 6.6901 8.4695 -52.0172 3.4927 11.4529 33.8230 0.0000 0.0000 0.0000 20.4672 15.2070 -34.3986 -3.3493 -11.2402 33.0942 1.1318 -18.5065 -5.1938 -0.4048 4.0848 -11.3153 -6.2622 0.8058 -7.3701 -2.0116 0.5191 -9.4444 1.4303 0.2908 -5.8517 -6.8898 -7.9940 -16.9201 4.1710 -11.2574 26.1014 0.8887 -5.4458 12.0201 0.0000 -0.0000 0.0000 -12.5857 5.6152 -27.7984 9.1095 -15.3347 -1.2289 -0.0000 -0.0000 52.9962 0.0402 28.9665 0.0195 -7.1250 0.0000 -0.0000 -32.8162 55.7452 -9.3757 0.0000 -0.0000 0.0000 31.4563 17.7003 -114.5788 -6.3427 10.8325 -0.6020 0.0000 0.0000 106.9670 -6.8470 7.5404 -0.9027 7.1250 -0.0000 -0.0000 14.4795 -22.4476 8.1087
2.7987 17.7347 25.5502 175.7500 -57.7645 -158.4320 0.0000 0.0000 0.0000 -13.7141 -8.2853 -17.1548 2.5711 9.9660 28.8666 5.5284 10.4901 -48.5455 3.1981 11.0090 32.3101 0.0000 0.0000 0.0000 20.6688 14.9406 -33.3298 -3.0653 -10.8000 31.6084 1.1834 -19.2826 -2.7805 -0.1257 2.2855 -6.2954 -6.4347 1.0088 -6.9524 -2.3270 0.7245 -9.5695 1.1921 0.3972 -6.2420 -6.9137 -7.9523 -16.5652 4.6281 -11.4817 26.7112 1.0239 -5.5192 12.2375 0.0000 -0.0000 0.0000 -11.9851 5.5132 -26.1888 9.0234 -15.1977 -1.2062 -0.0000 -0.0000 52.1729 0.0594 28.5059 0.0283 -7.1250 0.0000 -0.0000 -32.4360 55.3610 -8.9338 0.0000 -0.0000 0.0000 31.4129 16.4454 -113.7219 -6.3185 10.7923 -0.5974 0.0000 0.0000 104.9880 -6.7535 7.2660 -0.8581 7.1250 -0.0000 -0.0000 14.5721 -22.7168 8.0709
2.8292 17.8817 25.4285 175.1830 -57.3365 -158.2510 0.0000 0.0000 0.0000 -15.5403 -8.0866 -17.6553 2.5949 10.0085 29.0043 4.4334 12.4638 -45.1956 2.8339 10.4211 30.3516 0.0000 0.0000 0.0000 20.9152 14.1485 -32.6542 -2.8455 -10.4407 30.4161 0.9810 -19.5290 2.6504 -0.5054 4.5573 -12.6499 -6.7762 1.0535 -6.7274 -2.4111 0.7694 -9.5503 1.2903 0.4411 -6.3643 -7.8154 -7.8087 -16.6814 5.5846 -11.4633 27.6218 1.5085 -5.4940 12.7581 -0.0000 -0.0000 0.0000 -11.8730 5.6712 -25.8717 8.9170 -15.0280 -1.1785 -0.0000 -0.0000 52.3714 0.0898 27.9138 0.0421 -7.1250 0.0000 -0.0000 -31.9544 54.8659 -8.3780 -0.0000 -0.0000 0.0000 31.0285 15.6794 -113.0202 -6.2820 10.7317 -0.5906 0.0000 0.0000 102.7350 -6.3816 7.3751 -0.8225 7.1250 -0.0000 -0.0000 14.8275 -22.6170 8.2572
2.8577 18.0197 25.3090 175.1230 -57.0662 -158.4950 0.0000 0.0000 0.0000 -16.9873 -7.7795 -18.1234 2.5945 10.0078 29.0020 3.3336 14.2725 -41.5679 2.5783 9.9788 28.9082 0.0000 0.0000 0.0000 21.2516 13.7421 -31.9800 -2.6926 -10.1800 29.5618 0.2692 -18.3139 10.2777 -2.2967 9.4584 -27.2401 -6.7459 1.0978 -6.5038 -2.4334 0.8041 -9.5823 1.2464 0.4600 -6.5271 -8.1100 -7.6343 -16.2770 5.9383 -11.3910 28.1401 1.7115 -5.4800 12.9262 -0.0000 -0.0000 0.0000 -11.6639 6.0265 -23.4733 8.9371 -15.0602 -1.1837 -0.0000 -0.0000 50.6061 -0.1337 28.2017 -0.0632 -7.1250 0.0000 -0.0000 -32.3827 55.0669 -8.6748 -0.0000 -0.0000 0.0000 30.6558 14.9409 -113.4542 -6.3079 10.7746 -0.5955 0.0000 0.0000 101.7440 -6.1216 8.1791 -0.8742 7.1250 -0.0000 -0.0000 14.9360 -21.8404 8.5970
2.8942 18.1751 25.1842 175.5810 -56.7643 -159.0720 0.0000 0.0000 0.0000 -18.0481 -7.4897 -18.6918 2.5805 9.9828 28.9209 2.5082 15.1682 -38.3210 2.3776 9.6119 27.7289 0.0000 0.0000 0.0000 21.1975 14.5083 -31.4423 -2.5768 -9.9763 28.8999 1.5262 -23.4134 1.8304 -0.7077 -5.3767 14.9861 -6.5414 1.2099 -6.3018 -2.3692 0.9337 -9.6395 1.1966 0.5196 -6.7061 -7.6055 -7.4554 -15.6300 5.6687 -11.3050 28.2768 1.5649 -5.4598 12.7841 0.0000 0.0000 0.0000 -11.4858 6.2316 -19.9688 9.0430 -15.2290 -1.2114 -0.0000 -0.0000 47.4740 -0.4423 28.9858 -0.2143 -7.1250 0.0000 -0.0000 -33.2859 55.6660 -9.4660 0.0000 0.0000 0.0000 30.2726 14.1822 -113.6506 -6.2823 10.7321 -0.5907 0.0000 0.0000 100.6610 -5.9240 8.3020 -0.8584 7.1250 -0.0000 -0.0000 15.0642 -21.7252 8.7171
2.9340 18.3392 25.0585 176.4840 -56.4683 -159.9140 0.0000 0.0000 0.0000 -18.7787 -7.3684 -19.4046 2.5789 9.9800 28.9119 1.8260 15.9227 -35.3957 1.5738 7.9153 22.4572 0.0000 0.0000 0.0000 21.1095 15.6645 -31.1161 -2.4899 -9.8196 28.3945 1.9813 -24.0017 -10.6555 -5.9936 -14.4221 44.9559 -6.1468 1.2957 -6.1524 -2.1546 1.0459 -9.6797 1.1998 0.5648 -6.8289 -7.2217 -7.2957 -15.3299 5.2860 -11.1495 28.5600 1.3927 -5.4198 12.7700 0.0000 -0.0000 0.0000 -11.5346 6.4644 -17.5066 9.1584 -15.4125 -1.2419 -0.0000 -0.0000 45.0932 -0.6214 29.5204 -0.3062 -7.1250 0.0000 -0.0000 -33.8881 56.0763 -10.0197 0.0000 -0.0000 0.0000 29.6346 13.8008 -115.3685 -6.3521 10.8481 -0.6038 0.0000 0.0000 101.2810 -5.4839 7.8649 -0.7527 7.1250 -0.0000 -0.0000 15.4180 -22.1572 8.7791
2.9741 18.4773 24.9388 177.4550 -56.2277 -160.6210 0.0000 0.0000 0.0000 -19.3776 -7.3683 -20.3526 2.5844 9.9898 28.9436 1.2832 16.6156 -32.9304 1.9790 8.8222 25.2407 0.0000 0.0000 0.0000 21.1259 16.7824 -31.0257 -2.4383 -9.7249 28.0904 1.8509 -23.8953 -15.3572 -6.7078 -15.0808 47.7604 -5.6859 1.2421 -6.2290 -1.7830 0.9937 -9.7210 1.3354 0.5251 -6.8137 -7.2656 -7.1068 -15.3824 4.9462 -10.8519 29.1559 1.3125 -5.3462 12.9815 0.0000 -0.0000 0.0000 -11.9059 6.8798 -17.5629 9.1200 -15.3515 -1.2317 -0.0000 -0.0000 45.2664 -0.5940 29.2481 -0.2902 -7.1250 0.0000 -0.0000 -33.6398 55.8551 -9.7454 0.0000 -0.0000 0.0000 28.6182 14.0195 -120.1168 -6.5679 11.2059 -0.6450 0.0000 0.0000 105.0780 -5.4481 7.3699 -0.7009 7.1250 -0.0000 -0.0000 15.4935 -22.6370 8.6482
3.0138 18.5720 24.8228 178.1680 -55.9097 -161.0010 0.0000 0.0000 0.0000 -20.0893 -7.3497 -21.5259 2.6216 10.0557 29.1574 0.7583 17.4431 -30.4753 1.8095 8.4575 24.1125 0.0000 0.0000 0.0000 21.5884 16.5389 -31.1823 -2.4077 -9.6681 27.9085 -0.0948 -16.3698 -24.0966 -9.0979 -16.8703 56.4282 -5.3190 1.2137 -6.5226 -1.5056 0.9858 -9.7023 1.4280 0.5039 -6.6156 -7.1360 -6.9225 -15.4256 4.5789 -10.5665 29.5595 1.1935 -5.2611 13.1021 0.0000 0.0000 0.0000 -12.2528 7.1357 -18.2246 9.0668 -15.2668 -1.2176 -0.0000 -0.0000 45.4917 -0.4230 28.8103 -0.2039 -7.1250 0.0000 -0.0000 -33.1282 55.5228 -9.2932 0.0000 0.0000 0.0000 27.9215 13.9764 -120.7437 -6.6197 11.2916 -0.6551 0.0000 0.0000 104.7150 -5.3486 6.1274 -0.5726 7.1250 -0.0000 -0.0000 15.6988 -23.8402 8.3185
3.0485 18.6689 24.7101 178.9360 -55.5657 -161.3970 0.0000 0.0000 0.0000 -20.7220 -7.5408 -22.6133 2.6704 10.1413 29.4356 0.4624 17.5400 -28.5322 1.9135 8.6836 24.8105 0.0000 0.0000 0.0000 22.0842 15.7231 -31.6874 -2.4047 -9.6626 27.8909 -2.3223 4.6191 -27.7764 -10.5819 -17.7244 61.4163 -4.7891 1.2962 -6.8112 -1.3138 1.1046 -9.7432 1.3398 0.5306 -6.4866 -6.9541 -6.7653 -15.1325 4.2775 -10.3475 29.6776 1.0952 -5.2003 13.0407 -0.0000 0.0000 0.0000 -12.4763 7.1548 -18.4637 9.0481 -15.2371 -1.2127 -0.0000 -0.0000 45.2731 -0.6157 28.6210 -0.2949 -7.1250 0.0000 -0.0000 -33.1595 55.3266 -9.1382 -0.0000 0.0000 0.0000 27.5800 13.3877 -117.7319 -6.5426 11.1640 -0.6401 0.0000 0.0000 100.9060 -4.8907 6.1144 -0.5222 7.1250 -0.0000 -0.0000 16.0296 -23.8562 8.5016
3.0726 18.7587 24.6116 179.8500 -55.3764 -161.7510 0.0000 0.0000 0.0000 -21.2467 -7.5198 -23.9960 2.7281 10.2413 29.7617 0.0537 18.1458 -26.1430 2.0136 8.8943 25.4653 0.0000 0.0000 0.0000 22.4688 15.0319 -32.4162 -2.4252 -9.7007 28.0128 -0.0252 22.6805 -16.1706 -7.5331 -15.7648 50.8629 -3.8863 1.3086 -7.2395 -1.0685 1.1214 -9.7897 1.1018 0.4808 -6.2658 -6.8990 -6.5560 -15.1445 3.9769 -10.0170 30.0192 1.0217 -5.0966 13.1390 -0.0000 -0.0000 0.0000 -12.8247 7.4148 -18.3201 9.1030 -15.3244 -1.2272 -0.0000 -0.0000 44.5591 -0.4814 28.6251 -0.2306 -7.1250 0.0000 -0.0000 -33.0370 55.3561 -9.1235 -0.0000 -0.0000 0.0000 26.9556 13.1629 -117.0116 -6.5125 11.1142 -0.6343 0.0000 0.0000 99.3644 -4.8907 6.8769 -0.5870 7.1250 -0.0000 -0.0000 15.9434 -23.1206 8.7345
3.0999 18.8293 24.5234 180.2540 -55.0406 -161.6870 0.0000 0.0000 0.0000 -22.1080 -7.5387 -25.2773 2.7702 10.3135 29.9979 -0.3091 18.8957 -24.0527 1.9019 8.6587 24.7334 0.0000 0.0000 0.0000 22.3515 14.8274 -33.1240 -2.4723 -9.7873 28.2907 2.4056 26.3277 7.4293 -0.0172 0.8462 -2.3258 -3.2285 1.3304 -7.5836 -0.8494 1.1464 -9.8092 0.9708 0.4521 -6.0748 -7.0777 -6.3811 -15.1803 3.7791 -9.6831 30.2749 1.0267 -5.0014 13.2297 -0.0000 -0.0000 0.0000 -13.4219 7.5281 -19.6763 9.0903 -15.3043 -1.2239 -0.0000 -0.0000 45.1681 -0.1952 28.2998 -0.0925 -7.1250 0.0000 -0.0000 -32.5155 55.1378 -8.7750 -0.0000 -0.0000 0.0000 26.0065 13.2522 -119.2705 -6.5991 11.2576 -0.6511 0.0000 0.0000 100.8720 -4.8026 7.6653 -0.6421 7.1250 -0.0000 -0.0000 15.9210 -22.3610 9.0108
3.1434 18.8833 24.4092 180.8320 -54.3665 -161.9640 0.0000 0.0000 0.0000 -22.7595 -7.3235 -26.2330 2.8080 10.3776 30.2084 -0.3915 18.6775 -22.8964 2.0477 8.9647 25.6849 0.0000 0.0000 0.0000 22.5027 14.7704 -33.6081 -2.5403 -9.9109 28.6886 2.2820 25.6136 8.4606 -0.3182 3.6260 -10.0268 -3.0098 1.5063 -7.7813 -0.5840 1.3903 -9.7984 1.1350 0.5676 -5.9612 -7.0104 -6.3038 -14.9750 3.5002 -9.5429 30.3720 0.9374 -4.9805 13.1958 -0.0000 -0.0000 0.0000 -13.8884 7.3236 -20.9280 9.0572 -15.2516 -1.2151 -0.0000 -0.0000 45.9044 -0.1353 27.9745 -0.0635 -7.1250 0.0000 -0.0000 -32.2113 54.8745 -8.4636 -0.0000 -0.0000 0.0000 25.4301 12.9978 -117.4491 -6.4644 11.0345 -0.6251 0.0000 0.0000 97.9093 -4.7483 7.1875 -0.5954 7.1250 -0.0000 -0.0000 16.0108 -22.8226 8.8889
